<?xml version="1.0" encoding="UTF-8" standalone="no"?>
<!DOCTYPE svg PUBLIC "-//W3C//DTD SVG 1.1//EN" "http://www.w3.org/Graphics/SVG/1.1/DTD/svg11.dtd">
<svg version="1.1" xmlns="http://www.w3.org/2000/svg" xmlns:xlink="http://www.w3.org/1999/xlink" preserveAspectRatio="xMidYMid meet" viewBox="0 0 640 640" width="633" height="633"><defs><path d="M244.92 190.38C244.92 230.25 212.54 262.63 172.67 262.63C132.79 262.63 100.42 230.25 100.42 190.38C100.42 150.5 132.79 118.12 172.67 118.12C212.54 118.12 244.92 150.5 244.92 190.38Z" id="m2Xs1Fj8z"></path><path d="M168.42 188.6C168.42 194.66 163.5 199.58 157.44 199.58C151.38 199.58 146.46 194.66 146.46 188.6C146.46 182.54 151.38 177.62 157.44 177.62C163.5 177.62 168.42 182.54 168.42 188.6Z" id="a1EFZFtOUj"></path><path d="M196.46 228.6C196.46 234.66 201.38 239.58 207.44 239.58C213.5 239.58 218.42 234.66 218.42 228.6C218.42 222.54 213.5 217.62 207.44 217.62C201.38 217.62 196.46 222.54 196.46 228.6Z" id="i1p06shGJa"></path><path d="M186.46 178.6C186.46 184.66 191.38 189.58 197.44 189.58C203.5 189.58 208.42 184.66 208.42 178.6C208.42 172.54 203.5 167.62 197.44 167.62C191.38 167.62 186.46 172.54 186.46 178.6Z" id="a10CFprQbS"></path><path d="M135.48 226.35C135.48 232.41 140.4 237.33 146.46 237.33C152.52 237.33 157.44 232.41 157.44 226.35C157.44 220.29 152.52 215.37 146.46 215.37C140.4 215.37 135.48 220.29 135.48 226.35Z" id="b1S6eeHbXN"></path><path d="M168.42 142.6C168.42 148.66 163.5 153.58 157.44 153.58C151.38 153.58 146.46 148.66 146.46 142.6C146.46 136.54 151.38 131.62 157.44 131.62C163.5 131.62 168.42 136.54 168.42 142.6Z" id="d2FT6OMsAE"></path></defs><g><g><g><g><filter id="shadow5051066" x="88.42" y="106.12" width="172.5" height="169.5" filterUnits="userSpaceOnUse" primitiveUnits="userSpaceOnUse"><feFlood></feFlood><feComposite in2="SourceAlpha" operator="in"></feComposite><feGaussianBlur stdDeviation="1"></feGaussianBlur><feOffset dx="4" dy="1" result="afterOffset"></feOffset><feFlood flood-color="#000000" flood-opacity="0.5"></feFlood><feComposite in2="afterOffset" operator="in"></feComposite><feMorphology operator="dilate" radius="1"></feMorphology><feComposite in2="SourceAlpha" operator="out"></feComposite></filter><path d="M244.92 190.38C244.92 230.25 212.54 262.63 172.67 262.63C132.79 262.63 100.42 230.25 100.42 190.38C100.42 150.5 132.79 118.12 172.67 118.12C212.54 118.12 244.92 150.5 244.92 190.38Z" id="g3820LAsrd" fill="white" fill-opacity="1" filter="url(#shadow5051066)"></path></g><use xlink:href="#m2Xs1Fj8z" opacity="1" fill="#89b03b" fill-opacity="1"></use></g><g><use xlink:href="#a1EFZFtOUj" opacity="1" fill="#b03b3b" fill-opacity="1"></use></g><g><use xlink:href="#i1p06shGJa" opacity="1" fill="#b03b3b" fill-opacity="1"></use></g><g><use xlink:href="#a10CFprQbS" opacity="1" fill="#b03b3b" fill-opacity="1"></use></g><g><use xlink:href="#b1S6eeHbXN" opacity="1" fill="#b03b3b" fill-opacity="1"></use></g><g><use xlink:href="#d2FT6OMsAE" opacity="1" fill="#b03b3b" fill-opacity="1"></use></g></g></g></svg>